<svg width="520" height="260" viewBox="-30 -30 520 260" xmlns="http://www.w3.org/2000/svg" role="img" aria-labelledby="title desc">
  <title id="title">Riverthink logo</title>
  <desc id="desc">A red lightbulb with a flowing river path beside the word Riverthink.</desc>
  <defs>
    <linearGradient id="riverGlow" x1="0" x2="0" y1="0" y2="1">
      <stop offset="0%" stop-color="#c01a1f" />
      <stop offset="100%" stop-color="#aa0f16" />
    </linearGradient>
  </defs>
  <g transform="translate(30,10)">
    <path
      d="M60 8c-33 0-60 25.5-60 56.8 0 19.7 9.9 37.3 26.8 47.8 3.5 2.2 5.4 6.5 4.9 10.8l-.8 6.6c-.3 2 1.2 3.8 3.3 3.8h51.6c2.1 0 3.6-1.8 3.3-3.8l-.8-6.6c-.5-4.3 1.4-8.6 4.9-10.8C110.1 102.1 120 84.5 120 64.8 120 33.5 93 8 60 8Z"
      fill="none"
      stroke="url(#riverGlow)"
      stroke-width="10"
      stroke-linecap="round"
      stroke-linejoin="round"
    />
    <path
      d="M56 26c-9 5.5-18 16.2-12.7 27.7 3.4 7.4 13.1 8.6 19.5 11.4 4.1 1.9 5.3 5.6 1.1 7.5-5.7 2.7-14.9 4.6-16.8 11.9-2.6 10 10.6 16.1 28.8 16 6.3-.1 12.8-1.1 18.3-3.3-6.4-2.5-10.6-7-7-11.3 3.2-3.8 11.9-6.3 15.8-10.3 8.1-8.2-3.4-18.1-9.9-23.2-3.6-2.8-2.9-6.6 1.4-8.5C102.1 50.3 110 46.3 110 36c0-14.5-19.5-19.8-38.7-14.2C66.6 25 62 24.5 56 26Z"
      fill="url(#riverGlow)"
    />
    <rect x="39" y="125" width="42" height="7" rx="3.5" fill="#c01a1f" />
    <rect x="34" y="136" width="52" height="7" rx="3.5" fill="#c01a1f" />
    <rect x="28" y="147" width="64" height="7" rx="3.5" fill="#c01a1f" />
  </g>
  <text
    x="210"
    y="105"
    font-family="'Source Sans 3', 'Inter', system-ui, sans-serif"
    font-size="46"
    font-weight="700"
    fill="#1f2f4a"
  >
    riverthink
  </text>
</svg>
